G04 #@! TF.FileFunction,Soldermask,Top*
%FSLAX46Y46*%
G04 Gerber Fmt 4.6, Leading zero omitted, Abs format (unit mm)*
G04 Created by KiCad (PCBNEW (2015-02-14 BZR 5415)-product) date jeu. 05 mars 2015 22:43:21 CET*
%MOMM*%
G01*
G04 APERTURE LIST*
%ADD10C,0.100000*%
%ADD11R,1.727200X2.032000*%
%ADD12O,1.727200X2.032000*%
%ADD13R,2.032000X2.032000*%
%ADD14O,2.032000X2.032000*%
%ADD15R,0.762000X0.762000*%
%ADD16C,0.762000*%
%ADD17R,0.899160X1.501140*%
%ADD18C,5.000000*%
G04 APERTURE END LIST*
D10*
D11*
X67000000Y-68000000D03*
D12*
X69540000Y-68000000D03*
X72080000Y-68000000D03*
X74620000Y-68000000D03*
X77160000Y-68000000D03*
X79700000Y-68000000D03*
X82240000Y-68000000D03*
X84780000Y-68000000D03*
D13*
X60000000Y-68000000D03*
D14*
X62540000Y-68000000D03*
D15*
X100000000Y-69000000D03*
D16*
X98730000Y-69000000D03*
X97460000Y-69000000D03*
X96190000Y-69000000D03*
X94920000Y-69000000D03*
X93650000Y-69000000D03*
X92380000Y-69000000D03*
X91110000Y-69000000D03*
X89840000Y-69000000D03*
X88570000Y-69000000D03*
X87300000Y-69000000D03*
D17*
X19800740Y-17548900D03*
X23199260Y-17548900D03*
X23199260Y-22451100D03*
X19800740Y-22451100D03*
X96800740Y-59548900D03*
X100199260Y-59548900D03*
X100199260Y-64451100D03*
X96800740Y-64451100D03*
X89800740Y-59548900D03*
X93199260Y-59548900D03*
X93199260Y-64451100D03*
X89800740Y-64451100D03*
X82800740Y-59548900D03*
X86199260Y-59548900D03*
X86199260Y-64451100D03*
X82800740Y-64451100D03*
X75800740Y-59548900D03*
X79199260Y-59548900D03*
X79199260Y-64451100D03*
X75800740Y-64451100D03*
X68800740Y-59548900D03*
X72199260Y-59548900D03*
X72199260Y-64451100D03*
X68800740Y-64451100D03*
X61800740Y-59548900D03*
X65199260Y-59548900D03*
X65199260Y-64451100D03*
X61800740Y-64451100D03*
X54800740Y-59548900D03*
X58199260Y-59548900D03*
X58199260Y-64451100D03*
X54800740Y-64451100D03*
X47800740Y-59548900D03*
X51199260Y-59548900D03*
X51199260Y-64451100D03*
X47800740Y-64451100D03*
X40800740Y-59548900D03*
X44199260Y-59548900D03*
X44199260Y-64451100D03*
X40800740Y-64451100D03*
X33800740Y-59548900D03*
X37199260Y-59548900D03*
X37199260Y-64451100D03*
X33800740Y-64451100D03*
X26800740Y-59548900D03*
X30199260Y-59548900D03*
X30199260Y-64451100D03*
X26800740Y-64451100D03*
X19800740Y-59548900D03*
X23199260Y-59548900D03*
X23199260Y-64451100D03*
X19800740Y-64451100D03*
X100199260Y-57451100D03*
X96800740Y-57451100D03*
X96800740Y-52548900D03*
X100199260Y-52548900D03*
X93199260Y-57451100D03*
X89800740Y-57451100D03*
X89800740Y-52548900D03*
X93199260Y-52548900D03*
X86199260Y-57451100D03*
X82800740Y-57451100D03*
X82800740Y-52548900D03*
X86199260Y-52548900D03*
X79199260Y-57451100D03*
X75800740Y-57451100D03*
X75800740Y-52548900D03*
X79199260Y-52548900D03*
X72199260Y-57451100D03*
X68800740Y-57451100D03*
X68800740Y-52548900D03*
X72199260Y-52548900D03*
X65199260Y-57451100D03*
X61800740Y-57451100D03*
X61800740Y-52548900D03*
X65199260Y-52548900D03*
X58199260Y-57451100D03*
X54800740Y-57451100D03*
X54800740Y-52548900D03*
X58199260Y-52548900D03*
X51199260Y-57451100D03*
X47800740Y-57451100D03*
X47800740Y-52548900D03*
X51199260Y-52548900D03*
X44199260Y-57451100D03*
X40800740Y-57451100D03*
X40800740Y-52548900D03*
X44199260Y-52548900D03*
X37199260Y-57451100D03*
X33800740Y-57451100D03*
X33800740Y-52548900D03*
X37199260Y-52548900D03*
X30199260Y-57451100D03*
X26800740Y-57451100D03*
X26800740Y-52548900D03*
X30199260Y-52548900D03*
X23199260Y-57451100D03*
X19800740Y-57451100D03*
X19800740Y-52548900D03*
X23199260Y-52548900D03*
X96800740Y-45548900D03*
X100199260Y-45548900D03*
X100199260Y-50451100D03*
X96800740Y-50451100D03*
X89800740Y-45548900D03*
X93199260Y-45548900D03*
X93199260Y-50451100D03*
X89800740Y-50451100D03*
X82800740Y-45548900D03*
X86199260Y-45548900D03*
X86199260Y-50451100D03*
X82800740Y-50451100D03*
X75800740Y-45548900D03*
X79199260Y-45548900D03*
X79199260Y-50451100D03*
X75800740Y-50451100D03*
X68800740Y-45548900D03*
X72199260Y-45548900D03*
X72199260Y-50451100D03*
X68800740Y-50451100D03*
X61800740Y-45548900D03*
X65199260Y-45548900D03*
X65199260Y-50451100D03*
X61800740Y-50451100D03*
X54800740Y-45548900D03*
X58199260Y-45548900D03*
X58199260Y-50451100D03*
X54800740Y-50451100D03*
X47800740Y-45548900D03*
X51199260Y-45548900D03*
X51199260Y-50451100D03*
X47800740Y-50451100D03*
X40800740Y-45548900D03*
X44199260Y-45548900D03*
X44199260Y-50451100D03*
X40800740Y-50451100D03*
X33800740Y-45548900D03*
X37199260Y-45548900D03*
X37199260Y-50451100D03*
X33800740Y-50451100D03*
X26800740Y-45548900D03*
X30199260Y-45548900D03*
X30199260Y-50451100D03*
X26800740Y-50451100D03*
X19800740Y-45548900D03*
X23199260Y-45548900D03*
X23199260Y-50451100D03*
X19800740Y-50451100D03*
X100199260Y-43451100D03*
X96800740Y-43451100D03*
X96800740Y-38548900D03*
X100199260Y-38548900D03*
X93199260Y-43451100D03*
X89800740Y-43451100D03*
X89800740Y-38548900D03*
X93199260Y-38548900D03*
X86199260Y-43451100D03*
X82800740Y-43451100D03*
X82800740Y-38548900D03*
X86199260Y-38548900D03*
X79199260Y-43451100D03*
X75800740Y-43451100D03*
X75800740Y-38548900D03*
X79199260Y-38548900D03*
X72199260Y-43451100D03*
X68800740Y-43451100D03*
X68800740Y-38548900D03*
X72199260Y-38548900D03*
X65199260Y-43451100D03*
X61800740Y-43451100D03*
X61800740Y-38548900D03*
X65199260Y-38548900D03*
X58199260Y-43451100D03*
X54800740Y-43451100D03*
X54800740Y-38548900D03*
X58199260Y-38548900D03*
X51199260Y-43451100D03*
X47800740Y-43451100D03*
X47800740Y-38548900D03*
X51199260Y-38548900D03*
X44199260Y-43451100D03*
X40800740Y-43451100D03*
X40800740Y-38548900D03*
X44199260Y-38548900D03*
X37199260Y-43451100D03*
X33800740Y-43451100D03*
X33800740Y-38548900D03*
X37199260Y-38548900D03*
X30199260Y-43451100D03*
X26800740Y-43451100D03*
X26800740Y-38548900D03*
X30199260Y-38548900D03*
X23199260Y-43451100D03*
X19800740Y-43451100D03*
X19800740Y-38548900D03*
X23199260Y-38548900D03*
X96800740Y-31548900D03*
X100199260Y-31548900D03*
X100199260Y-36451100D03*
X96800740Y-36451100D03*
X89800740Y-31548900D03*
X93199260Y-31548900D03*
X93199260Y-36451100D03*
X89800740Y-36451100D03*
X82800740Y-31548900D03*
X86199260Y-31548900D03*
X86199260Y-36451100D03*
X82800740Y-36451100D03*
X75800740Y-31548900D03*
X79199260Y-31548900D03*
X79199260Y-36451100D03*
X75800740Y-36451100D03*
X68800740Y-31548900D03*
X72199260Y-31548900D03*
X72199260Y-36451100D03*
X68800740Y-36451100D03*
X61800740Y-31548900D03*
X65199260Y-31548900D03*
X65199260Y-36451100D03*
X61800740Y-36451100D03*
X54800740Y-31548900D03*
X58199260Y-31548900D03*
X58199260Y-36451100D03*
X54800740Y-36451100D03*
X47800740Y-31548900D03*
X51199260Y-31548900D03*
X51199260Y-36451100D03*
X47800740Y-36451100D03*
X40800740Y-31548900D03*
X44199260Y-31548900D03*
X44199260Y-36451100D03*
X40800740Y-36451100D03*
X33800740Y-31548900D03*
X37199260Y-31548900D03*
X37199260Y-36451100D03*
X33800740Y-36451100D03*
X26800740Y-31548900D03*
X30199260Y-31548900D03*
X30199260Y-36451100D03*
X26800740Y-36451100D03*
X19800740Y-31548900D03*
X23199260Y-31548900D03*
X23199260Y-36451100D03*
X19800740Y-36451100D03*
X100199260Y-29451100D03*
X96800740Y-29451100D03*
X96800740Y-24548900D03*
X100199260Y-24548900D03*
X93199260Y-29451100D03*
X89800740Y-29451100D03*
X89800740Y-24548900D03*
X93199260Y-24548900D03*
X86199260Y-29451100D03*
X82800740Y-29451100D03*
X82800740Y-24548900D03*
X86199260Y-24548900D03*
X79199260Y-29451100D03*
X75800740Y-29451100D03*
X75800740Y-24548900D03*
X79199260Y-24548900D03*
X72199260Y-29451100D03*
X68800740Y-29451100D03*
X68800740Y-24548900D03*
X72199260Y-24548900D03*
X65199260Y-29451100D03*
X61800740Y-29451100D03*
X61800740Y-24548900D03*
X65199260Y-24548900D03*
X58199260Y-29451100D03*
X54800740Y-29451100D03*
X54800740Y-24548900D03*
X58199260Y-24548900D03*
X51199260Y-29451100D03*
X47800740Y-29451100D03*
X47800740Y-24548900D03*
X51199260Y-24548900D03*
X44199260Y-29451100D03*
X40800740Y-29451100D03*
X40800740Y-24548900D03*
X44199260Y-24548900D03*
X37199260Y-29451100D03*
X33800740Y-29451100D03*
X33800740Y-24548900D03*
X37199260Y-24548900D03*
X30199260Y-29451100D03*
X26800740Y-29451100D03*
X26800740Y-24548900D03*
X30199260Y-24548900D03*
X23199260Y-29451100D03*
X19800740Y-29451100D03*
X19800740Y-24548900D03*
X23199260Y-24548900D03*
X96800740Y-17548900D03*
X100199260Y-17548900D03*
X100199260Y-22451100D03*
X96800740Y-22451100D03*
X89800740Y-17548900D03*
X93199260Y-17548900D03*
X93199260Y-22451100D03*
X89800740Y-22451100D03*
X82800740Y-17548900D03*
X86199260Y-17548900D03*
X86199260Y-22451100D03*
X82800740Y-22451100D03*
X75800740Y-17548900D03*
X79199260Y-17548900D03*
X79199260Y-22451100D03*
X75800740Y-22451100D03*
X68800740Y-17548900D03*
X72199260Y-17548900D03*
X72199260Y-22451100D03*
X68800740Y-22451100D03*
X61800740Y-17548900D03*
X65199260Y-17548900D03*
X65199260Y-22451100D03*
X61800740Y-22451100D03*
X54800740Y-17548900D03*
X58199260Y-17548900D03*
X58199260Y-22451100D03*
X54800740Y-22451100D03*
X47800740Y-17548900D03*
X51199260Y-17548900D03*
X51199260Y-22451100D03*
X47800740Y-22451100D03*
X40800740Y-17548900D03*
X44199260Y-17548900D03*
X44199260Y-22451100D03*
X40800740Y-22451100D03*
X33800740Y-17548900D03*
X37199260Y-17548900D03*
X37199260Y-22451100D03*
X33800740Y-22451100D03*
X26800740Y-17548900D03*
X30199260Y-17548900D03*
X30199260Y-22451100D03*
X26800740Y-22451100D03*
D18*
X16750000Y-17250000D03*
X103250000Y-17250000D03*
X16750000Y-69250000D03*
X103250000Y-69250000D03*
M02*
