M48
INCH,TZ
T1C0.015
T2C0.025
T3C0.040
T4C0.118
%
G90
G05
T1
X34370Y-27165
X34870Y-27165
X35370Y-27165
X35870Y-27165
X36370Y-27165
X36870Y-27165
X37370Y-27165
X37870Y-27165
X38370Y-27165
X38870Y-27165
X39370Y-27165
T2
X7579Y-26575
X8465Y-6496
X8465Y-9252
X8465Y-12008
X8465Y-14764
X8465Y-17520
X8465Y-20276
X8465Y-23031
X8465Y-25787
X8750Y-26555
X11220Y-6496
X11220Y-9252
X11220Y-12008
X11220Y-14764
X11220Y-17520
X11220Y-20276
X11220Y-23031
X11220Y-25787
X13976Y-6496
X13976Y-9252
X13976Y-12008
X13976Y-14764
X13976Y-17520
X13976Y-20276
X13976Y-23031
X13976Y-25787
X16732Y-6496
X16732Y-9252
X16732Y-12008
X16732Y-14764
X16732Y-17520
X16732Y-20276
X16732Y-23031
X16732Y-25787
X19488Y-6496
X19488Y-9252
X19488Y-12008
X19488Y-14764
X19488Y-17520
X19488Y-20276
X19488Y-23031
X19488Y-25787
X22244Y-6496
X22244Y-9252
X22244Y-12008
X22244Y-14764
X22244Y-17520
X22244Y-20276
X22244Y-23031
X22244Y-25787
X25000Y-6496
X25000Y-9252
X25000Y-12008
X25000Y-14764
X25000Y-17520
X25000Y-20276
X25000Y-23031
X25000Y-25787
X27756Y-6496
X27756Y-9252
X27756Y-12008
X27756Y-14764
X27756Y-17520
X27756Y-20276
X27756Y-23031
X27756Y-25787
X30512Y-6496
X30512Y-9252
X30512Y-12008
X30512Y-14764
X30512Y-17520
X30512Y-20276
X30512Y-23031
X30512Y-25787
X33268Y-6496
X33268Y-9252
X33268Y-12008
X33268Y-14764
X33268Y-17520
X33268Y-20276
X33268Y-23031
X33268Y-25787
X36024Y-6496
X36024Y-9252
X36024Y-12008
X36024Y-14764
X36024Y-17520
X36024Y-20276
X36024Y-23031
X36024Y-25787
X38441Y-26500
X38780Y-6496
X38780Y-9252
X38780Y-12008
X38780Y-14764
X38780Y-17520
X38780Y-20276
X38780Y-23031
X38780Y-25787
X39291Y-26500
T3
X23622Y-26772
X24622Y-26772
X26378Y-26772
X27378Y-26772
X28378Y-26772
X29378Y-26772
X30378Y-26772
X31378Y-26772
X32378Y-26772
X33378Y-26772
T4
X6594Y-6791
X6594Y-27264
X40650Y-6791
X40650Y-27264
T0
M30
