P1
# CREATOR: GIMP PNM Filter Version 1.1
48 60
0000101011010111001100100011001010000000000000010000101011111100011100
1001001001001000000000000100001000010101101011100001001010111100011100
0010000000000111110100101000010010000010010000000100000010000101010001
0110000011000000001000000101000110101101101011110111111111110000000010
0010011110111000100110110010000110110101001001011101000110101001011011
1110111010111111000000100000001010101010100001001001101100101001010010
0101110100001100101111100011101111001111100001000010001000100100101100
1111011111101110111100110110010110101010110110110010110010010010101000
1101100111111101111111110100101110110111111010001110100111111101100101
1011001011001001011010101011011001011111010111011100111101111000111011
1101010111110110101011001011001111110110110110110111101100011001000010
1101101100010101101101101101001010100010101000110101111010010101101111
0100100100100100100000001001111100010101010101111010101000100010100000
0010001110111001001101010110101011101100011000011110000010000000100000
1011100000001100110000000000010110110011011011010101110010000101010111
1100100000111011001011011111111010000011100101111011010001011011001011
1001000110101010111001011110110100011111001101101101001010101001010111
1101101010000000000000010000000000000000000011010110011000010010011011
1111011011011011011110100100101100001011011001100101011011110101010111
0001000100000011001110001101010111111101001111001001001000000010000110
0110011011010111101001111011010110000000000010010010101101010010101111
1100110000000000000000000111010101010101000000100111110000000111110000
1010011010101000001000010010111011100010000000001001110001011101000100
0010111111001000100000000010010111101010010010000111000011000000000000
0100101100100010000110000000100111100000000000101011110010010101011110
0000011010111100000000000001001001001000010101101000001010101100000000
0010000000111001000111011000010111110111000000000100000111000010000100
0110001100000001100000000001111100110101101010100110111100110101011100
1101010101001011101101010111010011111111111111111111111110110110110110
1111111100110110110110010010010010111111111111111111110011100100100100
0100100100101011011011011011011011101111111111111111111111111101111100
1101011010100011111001101010101110011010110101001011101101010110100000
0000000101110101111111101101101101101010101101101101101101101111101111
1011011011011011011011011011011011111101011101010100100100100100001111
1111111111101010011111001101011010101000000011001101010100000001000011
0110111111110110000011011011111011110011101101011011011011011011111100
1011011011010000000000001011011011011011010100111101101101100100100100
1011111111111111111111111001101101101101001001001000011011001101011010
1010000110011010101011100101110011000000101011000000000000000101000000
1110000111100100100100100101110111011010001011011011011011011011011011
0110100010110110110110111111111101010101001001001001001011001101101101
1010100010